<?xml version="1.0" encoding="UTF-8"?>
<!DOCTYPE svg PUBLIC "-//W3C//DTD SVG 1.1//EN" "http://www.w3.org/Graphics/SVG/1.1/DTD/svg11.dtd">
<svg xmlns="http://www.w3.org/2000/svg" version="1.1" width="1737px" height="172px" style="shape-rendering:geometricPrecision; text-rendering:geometricPrecision; image-rendering:optimizeQuality; fill-rule:evenodd; clip-rule:evenodd" xmlns:xlink="http://www.w3.org/1999/xlink">
<g><path style="opacity:0.978" fill="#fefffe" d="M 175.5,-0.5 C 204.833,-0.5 234.167,-0.5 263.5,-0.5C 285.175,3.77014 296.342,17.1035 297,39.5C 297.667,70.1667 297.667,100.833 297,131.5C 296.385,153.93 285.218,167.263 263.5,171.5C 234.167,171.5 204.833,171.5 175.5,171.5C 155.845,168.678 144.678,157.344 142,137.5C 141.333,102.833 141.333,68.1667 142,33.5C 144.678,13.6558 155.845,2.32242 175.5,-0.5 Z M 194.5,33.5 C 211.17,33.3334 227.837,33.5001 244.5,34C 249.551,35.7167 252.385,39.2167 253,44.5C 253.667,71.8333 253.667,99.1667 253,126.5C 252.285,132.215 249.118,135.715 243.5,137C 227.167,137.667 210.833,137.667 194.5,137C 190.104,136.27 187.27,133.77 186,129.5C 185.333,100.167 185.333,70.8333 186,41.5C 187.445,37.218 190.278,34.5513 194.5,33.5 Z"/></g>
<g><path style="opacity:0.978" fill="#fefffe" d="M 349.5,-0.5 C 378.833,-0.5 408.167,-0.5 437.5,-0.5C 457.848,3.35498 469.015,15.6883 471,36.5C 471.667,69.1667 471.667,101.833 471,134.5C 469.015,155.312 457.848,167.645 437.5,171.5C 408.167,171.5 378.833,171.5 349.5,171.5C 329.637,167.798 318.47,155.798 316,135.5C 315.333,102.167 315.333,68.8333 316,35.5C 318.47,15.2021 329.637,3.20213 349.5,-0.5 Z M 368.5,33.5 C 385.17,33.3334 401.837,33.5001 418.5,34C 421.539,35.0314 424.039,36.8647 426,39.5C 427.643,69.1053 427.976,98.7719 427,128.5C 425.969,131.539 424.135,134.039 421.5,136C 403.899,137.625 386.233,137.959 368.5,137C 365.375,136.021 362.875,134.187 361,131.5C 359.357,101.895 359.024,72.2281 360,42.5C 361.351,37.9848 364.185,34.9848 368.5,33.5 Z"/></g>
<g><path style="opacity:0.979" fill="#fefffe" d="M 1445.5,-0.5 C 1474.83,-0.5 1504.17,-0.5 1533.5,-0.5C 1554.32,3.4906 1565.48,16.1573 1567,37.5C 1567.67,69.5 1567.67,101.5 1567,133.5C 1565.48,154.843 1554.32,167.509 1533.5,171.5C 1504.17,171.5 1474.83,171.5 1445.5,171.5C 1425.51,167.952 1414.35,155.952 1412,135.5C 1411.33,102.167 1411.33,68.8333 1412,35.5C 1414.47,15.2021 1425.64,3.20213 1445.5,-0.5 Z M 1464.5,33.5 C 1481.17,33.3334 1497.84,33.5001 1514.5,34C 1518.64,35.4741 1521.47,38.3074 1523,42.5C 1523.67,71.1667 1523.67,99.8333 1523,128.5C 1521.94,131.562 1520.11,134.062 1517.5,136C 1499.9,137.625 1482.23,137.959 1464.5,137C 1459.76,136.052 1456.93,133.219 1456,128.5C 1455.33,99.8333 1455.33,71.1667 1456,42.5C 1457.18,37.8481 1460.01,34.8481 1464.5,33.5 Z"/></g>
<g><path style="opacity:0.99" fill="#fefffe" d="M -0.5,1.5 C 13.8333,1.5 28.1667,1.5 42.5,1.5C 42.5,46.1667 42.5,90.8333 42.5,135.5C 71.8333,135.5 101.167,135.5 130.5,135.5C 130.5,146.833 130.5,158.167 130.5,169.5C 86.8333,169.5 43.1667,169.5 -0.5,169.5C -0.5,113.5 -0.5,57.5 -0.5,1.5 Z"/></g>
<g><path style="opacity:0.979" fill="#fefffe" d="M 494.5,1.5 C 531.835,1.33335 569.168,1.50001 606.5,2C 629.136,4.30228 641.302,16.8023 643,39.5C 643.667,54.1667 643.667,68.8333 643,83.5C 641.548,105.284 630.048,117.784 608.5,121C 585.169,121.5 561.836,121.667 538.5,121.5C 538.5,137.5 538.5,153.5 538.5,169.5C 523.833,169.5 509.167,169.5 494.5,169.5C 494.5,113.5 494.5,57.5 494.5,1.5 Z M 538.5,35.5 C 556.556,35.0542 574.556,35.5542 592.5,37C 596.165,38.668 598.332,41.5013 599,45.5C 599.667,56.1667 599.667,66.8333 599,77.5C 598.332,81.4987 596.165,84.332 592.5,86C 574.569,87.4598 556.569,87.9598 538.5,87.5C 538.5,70.1667 538.5,52.8333 538.5,35.5 Z"/></g>
<g><path style="opacity:0.974" fill="#fefffe" d="M 842.5,171.5 C 825.167,171.5 807.833,171.5 790.5,171.5C 770.663,170.01 750.663,168.676 730.5,167.5C 730.168,156.147 730.501,144.814 731.5,133.5C 762.095,135.984 792.761,137.15 823.5,137C 826.583,136.214 828.749,134.381 830,131.5C 831.376,122.902 831.876,114.235 831.5,105.5C 808.141,105.875 784.808,105.375 761.5,104C 744.554,101.054 734.054,91.221 730,74.5C 727.738,59.094 728.072,43.7607 731,28.5C 735.128,14.0401 744.628,5.54014 759.5,3C 793.131,1.54239 826.798,1.04239 860.5,1.5C 860.5,12.8333 860.5,24.1667 860.5,35.5C 834.831,35.3334 809.165,35.5 783.5,36C 778.217,36.6154 774.717,39.4487 773,44.5C 771.859,51.0841 772.526,57.4174 775,63.5C 776.214,65.0488 777.714,66.2155 779.5,67C 801.819,68.0235 824.153,69.0235 846.5,70C 866.493,76.3683 875.993,90.2016 875,111.5C 875.701,122.58 875.034,133.58 873,144.5C 868.438,159.86 858.271,168.86 842.5,171.5 Z"/></g>
<g><path style="opacity:0.978" fill="#fefffe" d="M 871.5,1.5 C 919.5,1.5 967.5,1.5 1015.5,1.5C 1015.5,12.8333 1015.5,24.1667 1015.5,35.5C 998.833,35.5 982.167,35.5 965.5,35.5C 965.5,80.1667 965.5,124.833 965.5,169.5C 950.833,169.5 936.167,169.5 921.5,169.5C 921.5,124.833 921.5,80.1667 921.5,35.5C 904.833,35.5 888.167,35.5 871.5,35.5C 871.5,24.1667 871.5,12.8333 871.5,1.5 Z"/></g>
<g><path style="opacity:0.974" fill="#fefffe" d="M 1061.5,1.5 C 1077.85,1.16722 1094.18,1.50055 1110.5,2.5C 1131.5,57.8333 1152.5,113.167 1173.5,168.5C 1157.51,169.499 1141.51,169.833 1125.5,169.5C 1122.47,159.759 1119.13,150.092 1115.5,140.5C 1095.83,139.167 1076.17,139.167 1056.5,140.5C 1052.76,150.052 1049.43,159.719 1046.5,169.5C 1030.5,169.5 1014.5,169.5 998.5,169.5C 1019.1,113.352 1040.1,57.3519 1061.5,1.5 Z M 1085.5,54.5 C 1092.27,71.8066 1098.27,89.4733 1103.5,107.5C 1091.5,107.667 1079.5,107.5 1067.5,107C 1074,89.6798 1080,72.1798 1085.5,54.5 Z"/></g>
<g><path style="opacity:0.975" fill="#fefffe" d="M 1155.5,1.5 C 1203.83,1.5 1252.17,1.5 1300.5,1.5C 1300.5,12.8333 1300.5,24.1667 1300.5,35.5C 1283.5,35.5 1266.5,35.5 1249.5,35.5C 1249.5,80.1667 1249.5,124.833 1249.5,169.5C 1234.83,169.5 1220.17,169.5 1205.5,169.5C 1205.5,124.833 1205.5,80.1667 1205.5,35.5C 1188.83,35.5 1172.17,35.5 1155.5,35.5C 1155.5,24.1667 1155.5,12.8333 1155.5,1.5 Z"/></g>
<g><path style="opacity:0.978" fill="#fefffe" d="M 1308.5,1.5 C 1337.5,1.5 1366.5,1.5 1395.5,1.5C 1395.5,12.8333 1395.5,24.1667 1395.5,35.5C 1388.5,35.5 1381.5,35.5 1374.5,35.5C 1374.5,68.8333 1374.5,102.167 1374.5,135.5C 1381.5,135.5 1388.5,135.5 1395.5,135.5C 1395.5,146.833 1395.5,158.167 1395.5,169.5C 1366.5,169.5 1337.5,169.5 1308.5,169.5C 1308.5,158.167 1308.5,146.833 1308.5,135.5C 1315.83,135.5 1323.17,135.5 1330.5,135.5C 1330.5,102.167 1330.5,68.8333 1330.5,35.5C 1323.17,35.5 1315.83,35.5 1308.5,35.5C 1308.5,24.1667 1308.5,12.8333 1308.5,1.5 Z"/></g>
<g><path style="opacity:0.983" fill="#fefffe" d="M 1736.5,1.5 C 1736.5,57.5 1736.5,113.5 1736.5,169.5C 1721.16,169.667 1705.83,169.5 1690.5,169C 1671.87,136.915 1653.37,104.748 1635,72.5C 1634.5,104.832 1634.33,137.165 1634.5,169.5C 1619.83,169.5 1605.17,169.5 1590.5,169.5C 1590.5,113.5 1590.5,57.5 1590.5,1.5C 1606.18,1.16727 1621.85,1.5006 1637.5,2.5C 1656,34.8333 1674.5,67.1667 1693,99.5C 1693.5,66.835 1693.67,34.1684 1693.5,1.5C 1707.83,1.5 1722.17,1.5 1736.5,1.5 Z"/></g>
</svg>
